<svg height="84" viewBox="0 0 106 84" width="106" xmlns="http://www.w3.org/2000/svg"><g fill="none" fill-rule="evenodd" stroke="#14baa2" stroke-linecap="round" stroke-linejoin="round" transform="translate(2 2)"><path d="m0 0v8.237h7.9516l2.06-3.197c.3257375-.506 1.187075-.921 1.9158-.921h13.2548125c.728725 0 1.59135.415 1.9170875.921l2.057425 3.197h60.9695625v-8.237z"/><path d="m0 14.413h7.9516v55.588h-7.9516z"/><path d="m0 14.413h7.9516v6.177h-7.9516z"/><path d="m13.253525 15.958h10.601275v3.087h-10.601275z"/><path d="m29.156725 15.958h21.206413v3.087h-21.206413z"/><path d="m23.856088 22.133h26.50705v3.089h-26.50705z"/><path d="m55.665063 22.133h15.904488v3.089h-15.904488z"/><path d="m23.856088 28.309h5.300638v3.09h-5.300638z"/><path d="m34.459938 28.309h26.505763v3.09h-26.505763z"/><path d="m66.268913 28.309h15.905775v3.09h-15.905775z"/><path d="m23.856088 34.485h21.203838v3.089h-21.203838z"/><path d="m50.363138 34.485h26.505763v3.089h-26.505763z"/><path d="m13.253525 40.662h5.29935v3.089h-5.29935z"/><path d="m23.857375 40.662h26.50705v3.089h-26.50705z"/><path d="m55.665063 40.662h5.300638v3.089h-5.300638z"/><path d="m0 20.59h7.9516v6.175h-7.9516z"/><path d="m0 26.765h7.9516v6.178h-7.9516z"/><path d="m0 32.942h7.9516v6.177h-7.9516z"/><path d="m0 39.119h7.9516v6.177h-7.9516z"/><path d="m0 45.296h7.9516v6.177h-7.9516z"/><path d="m0 51.473h7.9516v6.176h-7.9516z"/><path d="m0 57.648h7.9516v6.177h-7.9516z"/><path d="m0 63.825h7.9516v6.176h-7.9516z"/><path d="m82.836463 2.574h3.977088v3.09h-3.977088z"/><path d="m76.210988 2.574h3.974513v3.09h-3.974513z"/><path d="m69.584225 2.574h3.974513v3.09h-3.974513z"/><path d="m40.3554 5.04c-.327025-.506-1.18965-.921-1.918375-.921h-13.2548125c.728725 0 1.59135.415 1.9170875.921l2.057425 3.197h2.6355125 10.6205875z"/><path d="m83.0682125 54.422-5.2002125 16.154z"/><path d="m88.26585 66.536 5.2027875-4.041-5.2027875-4.032 5.2027875 4.032z"/><path d="m72.669075 58.463-5.198925 4.036 5.198925 4.037-5.198925-4.037z"/><ellipse cx="80.46875" cy="62.499" rx="22.53125" ry="17.5"/><path d="m57.9362125 62.499c0-9.665 10.086275-17.501 22.533825-17.501 3.4608 0 6.7271875.625 9.65625 1.707v-38.468h-60.973425.0038625l-2.057425-3.197c-.3257375-.506-1.1883625-.921-1.9170875-.921h-13.2548125c-.728725 0-1.5900625.415-1.9158.921l-2.06 3.197h.0064375-7.9580375v61.764h60.133975c-1.3943625-2.275-2.1977625-4.813-2.1977625-7.502z"/><path d="m58.3507875 59.191h-34.4934125v3.089h34.093c.0167375-1.054.1545-2.086.4004125-3.089z"/><path d="m18.55545 53.017h5.301925v3.088h-5.301925z"/><path d="m29.161875 53.017v3.088h30.3476625c.5523375-1.087 1.2321375-2.12 2.0406875-3.088z"/><path d="m70.452 46.84h-51.89655v3.088h46.2585875c1.6544375-1.243 3.5547875-2.282 5.6379625-3.088z"/></g></svg>