<svg height="84" viewBox="0 0 84 84" width="84" xmlns="http://www.w3.org/2000/svg"><g fill="none" fill-rule="evenodd" stroke="#14baa2" stroke-linecap="round" stroke-linejoin="round" transform="translate(2 2)"><path d="m0 0v8.304h6.229l1.612-3.223c.256-.511.932-.928 1.503-.928h10.38c.57 0 1.247.417 1.501.928l1.611 3.223h12.458v-8.304z"/><path d="m22.833 8.305.003-.001-1.611-3.223c-.254-.511-.931-.928-1.501-.928h-10.38c-.571 0-1.247.417-1.503.928l-1.612 3.223.005.001h-6.232v62.282h35.292v-62.282z"/><path d="m0 14.532h6.229v56.055h-6.229z"/><path d="m0 14.532h6.229v6.229h-6.229z"/><path d="m10.38 16.089h8.304v3.116h-8.304z"/><path d="m22.836 16.089h12.458v3.116h-12.458z"/><path d="m19.791 22.317h15.503v3.115h-15.503z"/><path d="m19.794 28.546h4.153v3.113h-4.153z"/><path d="m28.1 28.546h7.194v3.113h-7.194z"/><path d="m19.794 34.775h15.5v3.112h-15.5z"/><path d="m10.38 41.004h4.153v3.112h-4.153z"/><path d="m18.687 41.004h16.607v3.112h-16.607z"/><path d="m15.088 47.229h20.206v3.116h-20.206z"/><path d="m15.088 53.461h4.151v3.112h-4.151z"/><path d="m23.394 53.461h11.9v3.112h-11.9z"/><path d="m19.794 59.686h15.5v3.113h-15.5z"/><path d="m0 20.761h6.229v6.227h-6.229z"/><path d="m0 26.988h6.229v6.227h-6.229z"/><path d="m0 33.215h6.229v6.229h-6.229z"/><path d="m0 39.444h6.229v6.229h-6.229z"/><path d="m0 45.673h6.229v6.229h-6.229z"/><path d="m0 51.902h6.229v6.228h-6.229z"/><path d="m0 58.13h6.229v6.229h-6.229z"/><path d="m0 64.358h6.229v6.229h-6.229z"/><path d="m31.605 5.081c-.254-.511-.931-.928-1.5-.928h-10.381c.57 0 1.247.417 1.501.928l1.611 3.223h2.064 8.316z"/><path d="m35.294 33.215h13.495v33.219h-13.495z"/><path d="m35.294 12.458h31.14v16.608h-31.14z"/><path d="m35.294 0h35.293v8.304h-35.293z"/><path d="m64.878 2.594h3.114v3.116h-3.114z"/><path d="m59.688 2.594h3.114v3.116h-3.114z"/><path d="m54.498 2.594h3.115v3.116h-3.115z"/><path d="m52.939 33.215h13.494z"/><path d="m52.939 37.369h13.494z"/><path d="m52.939 41.52h13.494z"/><path d="m52.939 45.673h13.494z"/><path d="m72.672 66.469c0 3.428-2.773 6.203-6.2 6.203-3.428 0-6.201-2.775-6.201-6.203 0-3.424 2.773-6.195 6.201-6.195 3.426-.001 6.2 2.771 6.2 6.195z"/><path d="m70.355 75.843c1.586-.655 3.375-.004 4.212 1.446 1.035-.775 1.95-1.692 2.727-2.724-1.452-.84-2.104-2.63-1.449-4.212.662-1.593 2.387-2.393 4.001-1.955.091-.632.154-1.271.154-1.929 0-.654-.063-1.293-.154-1.923-1.614.435-3.344-.376-4.001-1.958-.654-1.589-.003-3.378 1.449-4.208-.776-1.038-1.693-1.956-2.727-2.731-.837 1.456-2.626 2.108-4.214 1.45-1.59-.658-2.396-2.387-1.956-4.004-.633-.088-1.27-.149-1.926-.149-.657 0-1.294.062-1.929.149.435 1.617-.371 3.346-1.955 4.004-1.589.658-3.378.006-4.21-1.446-1.036.775-1.95 1.689-2.726 2.728 1.451.83 2.104 2.626 1.448 4.208-.661 1.586-2.389 2.393-4.008 1.958-.087.63-.15 1.269-.15 1.923 0 .658.063 1.297.15 1.93 1.619-.438 3.347.369 4.008 1.955.655 1.589.003 3.378-1.448 4.212.775 1.034 1.689 1.948 2.726 2.724.832-1.45 2.621-2.102 4.21-1.446 1.584.662 2.39 2.386 1.955 4.005.636.085 1.272.15 1.93.15.656 0 1.298-.065 1.926-.152-.436-1.619.369-3.343 1.957-4.005z"/><path d="m57.101 70.354c-.661-1.586-2.389-2.393-4.008-1.955-.087-.633-.15-1.271-.15-1.93 0-.654.063-1.293.15-1.923 1.619.435 3.347-.372 4.008-1.958.655-1.582.003-3.378-1.448-4.208.775-1.038 1.689-1.952 2.726-2.728.832 1.452 2.621 2.104 4.21 1.446 1.584-.658 2.39-2.387 1.955-4.004.635-.088 1.271-.149 1.929-.149.656 0 1.293.062 1.926.149-.439 1.617.366 3.346 1.956 4.004.076.033.155.049.233.071v-48.865h-35.294v62.283h21.878c-.026-.078-.039-.158-.071-.233z"/><path d="m53.093 64.546c1.619.435 3.347-.372 4.008-1.958.655-1.582.003-3.378-1.448-4.208.775-1.038 1.689-1.952 2.726-2.728.832 1.452 2.621 2.104 4.21 1.446 1.584-.658 2.39-2.387 1.955-4.004.621-.088 1.247-.146 1.891-.146v-3.124h-13.496v16.609h.005c.001-.642.064-1.268.149-1.887z"/></g></svg>