<svg height="41" viewBox="0 0 155 41" width="155" xmlns="http://www.w3.org/2000/svg"><g fill="none" fill-rule="evenodd" transform="translate(1 1)"><text fill="#101010" font-family="Avenir-Black, Avenir" font-size="20" font-weight="700"><tspan x="51.83" y="27">Mark Fasel</tspan></text><circle cx="19.5" cy="19.5" r="19.5" stroke="#101010" stroke-width="2"/><path d="m6 16.5078125h2.88v1.2890625h.04c.0933338-.1822926.2266658-.3645824.4-.546875s.3799988-.3450514.62-.4882813c.2400012-.1432298.5133318-.2604162.82-.3515624.3066682-.0911463.6399982-.1367188 1-.1367188.6800034 0 1.2833307.1367174 1.81.4101562.5266693.2734389.923332.7031221 1.19 1.2890625.3466684-.6119822.7666642-1.0481757 1.26-1.3085937s1.0999964-.390625 1.82-.390625c.6533366 0 1.2033311.1074208 1.65.3222656s.7999987.5078107 1.06.8789063.4466661.8072891.56 1.3085937.17 1.0384086.17 1.6113282v5.6054687h-3v-5.5273437c0-.4427106-.0966657-.8235662-.29-1.1425782s-.5366642-.4785156-1.03-.4785156c-.3466684 0-.6366655.055338-.87.1660156-.2333345.1106777-.4199993.2636709-.56.4589844s-.2399997.4231758-.3.6835937c-.0600003.260418-.09.5338528-.09.8203126v5.0195312h-3v-5.0195312c0-.1692717-.0066666-.377603-.02-.625-.0133334-.2473971-.0599996-.4817698-.14-.703125-.0800004-.2213553-.2099991-.4101555-.39-.5664063s-.4433316-.234375-.79-.234375c-.3866686 0-.6999988.0683587-.94.2050781-.2400012.1367195-.4233327.3190093-.55.546875s-.2099998.4850246-.25.7714844-.06.5859359-.06.8984375v4.7265625h-3zm18.44 2.34375h-1.98v-2.34375h1.98v-1.6796875c0-.5208359.0466662-1.0123675.14-1.4746094s.273332-.8691388.54-1.2207031.6499975-.6282542 1.15-.8300781c.5000025-.201824 1.1566626-.3027344 1.97-.3027344.3066682 0 .6066652.0130207.9.0390625s.5799986.0716143.86.1367187l-.14 2.4804688c-.1733342-.0651045-.3333326-.1139321-.48-.1464844-.1466674-.0325522-.3133324-.0488281-.5-.0488281-.4800024 0-.8399988.1009104-1.08.3027344-.2400012.2018239-.36.6152312-.36 1.2402343v1.5039063h2.22v2.34375h-2.22v7.1484375h-3z" fill="#101010" fill-rule="nonzero"/></g></svg>