<svg height="84" viewBox="0 0 84 84" width="84" xmlns="http://www.w3.org/2000/svg"><g fill="none" fill-rule="evenodd" stroke="#14baa2" stroke-linecap="round" stroke-linejoin="round" transform="translate(2 2)"><path d="m4.998 20.002h40.002v19.999h-40.002z"/><path d="m4.998 10.001h40.002v4.999h-40.002z"/><path d="m4.998 45h45.001v35h-45.001z"/><path d="m8.75 48.751h37.501v27.499h-37.501z"/><path d="m0 0h80v5.001h-80z"/><path d="m75.001 0h4.999v5.001h-4.999z"/><path d="m69.999 0h5.002v5.001h-5.002z"/><path d="m65 0h4.999v5.001h-4.999z"/><path d="m39.354 76.25-17.812-23.75-12.792 17.053v6.697z"/><path d="m33.783 68.824c3.424-.604 6.025-3.592 6.025-7.188 0-4.037-3.27-7.311-7.306-7.311-2.872 0-5.349 1.657-6.544 4.065z"/><path d="m62.502 26.252 3.748 7.5-7.501-.007z"/><path d="m49.999 62.501h12.503v-28.753 28.753z"/><path d="m49.999 10.001v19.999h10.626l1.877-3.748 1.874 3.748h10.625v-19.999z"/><path d="m0 5.003v44.999h4.998v-5.002h45.001v5.002h30.001v-44.999z"/></g></svg>